<svg width="339" height="32" viewBox="0 0 339 32" fill="none" xmlns="http://www.w3.org/2000/svg">
<rect x="0.141602" width="44" height="32" rx="2" fill="white"/>
<path fill-rule="evenodd" clip-rule="evenodd" d="M14.6526 21.3416H11.9055L9.84558 13.2559C9.7478 12.8839 9.5402 12.5551 9.23482 12.4001C8.47272 12.0106 7.63293 11.7007 6.7168 11.5444V11.2331H11.1421C11.7528 11.2331 12.2109 11.7007 12.2873 12.2438L13.3561 18.0763L16.1018 11.2331H18.7725L14.6526 21.3416ZM20.3003 21.3417H17.7059L19.8422 11.2332H22.4366L20.3003 21.3417ZM25.7922 14.0335C25.8686 13.4891 26.3266 13.1778 26.861 13.1778C27.7008 13.0996 28.6156 13.2559 29.3791 13.6441L29.8371 11.4676C29.0737 11.1563 28.2339 11 27.4718 11C24.9538 11 23.1215 12.4002 23.1215 14.3435C23.1215 15.8218 24.4194 16.5981 25.3355 17.0657C26.3266 17.532 26.7083 17.8433 26.632 18.3096C26.632 19.009 25.8686 19.3203 25.1065 19.3203C24.1903 19.3203 23.2742 19.0871 22.4357 18.6977L21.9777 20.8754C22.8938 21.2636 23.8849 21.4199 24.8011 21.4199C27.6245 21.4967 29.3791 20.0979 29.3791 17.9983C29.3791 15.3542 25.7922 15.1992 25.7922 14.0335ZM38.4578 21.3417L36.3978 11.2332H34.1852C33.7271 11.2332 33.269 11.5445 33.1163 12.0107L29.3018 21.3417H31.9725L32.5056 19.8647H35.7871L36.0924 21.3417H38.4578ZM34.5677 13.9553L35.3298 17.7651H33.1935L34.5677 13.9553Z" fill="#172B85"/>
<rect x="49.1416" width="44" height="32" rx="2" fill="white"/>
<path fill-rule="evenodd" clip-rule="evenodd" d="M71.7529 23.2428C70.1144 24.6233 67.9889 25.4568 65.6663 25.4568C60.4841 25.4568 56.2832 21.308 56.2832 16.1902C56.2832 11.0724 60.4841 6.92358 65.6663 6.92358C67.9889 6.92358 70.1144 7.757 71.7529 9.13754C73.3915 7.757 75.517 6.92358 77.8396 6.92358C83.0217 6.92358 87.2227 11.0724 87.2227 16.1902C87.2227 21.308 83.0217 25.4568 77.8396 25.4568C75.517 25.4568 73.3915 24.6233 71.7529 23.2428Z" fill="#ED0006"/>
<path fill-rule="evenodd" clip-rule="evenodd" d="M71.7529 23.2436C73.7708 21.544 75.0503 19.0146 75.0503 16.1902C75.0503 13.3657 73.7708 10.8364 71.7529 9.13672C73.3913 7.75667 75.5165 6.92358 77.8386 6.92358C83.0207 6.92358 87.2217 11.0724 87.2217 16.1902C87.2217 21.308 83.0207 25.4568 77.8386 25.4568C75.5165 25.4568 73.3913 24.6237 71.7529 23.2436Z" fill="#F9A000"/>
<path fill-rule="evenodd" clip-rule="evenodd" d="M71.7534 23.2433C73.771 21.5436 75.0503 19.0145 75.0503 16.1902C75.0503 13.366 73.771 10.8369 71.7534 9.13721C69.7359 10.8369 68.4565 13.366 68.4565 16.1902C68.4565 19.0145 69.7359 21.5436 71.7534 23.2433Z" fill="#FF5E00"/>
<rect x="98.1416" width="44" height="32" rx="2" fill="white"/>
<path fill-rule="evenodd" clip-rule="evenodd" d="M106.151 11L101.765 20.9872H107.016L107.667 19.3948H109.155L109.806 20.9872H115.586V19.7718L116.101 20.9872H119.091L119.606 19.7461V20.9872H131.627L133.088 19.4361L134.457 20.9872L140.631 21L136.231 16.0215L140.631 11H134.553L133.13 12.5224L131.805 11H118.727L117.605 13.5778L116.455 11H111.215V12.174L110.632 11H106.151ZM107.168 12.4182H109.727L112.637 19.1906V12.4182H115.441L117.688 17.274L119.759 12.4182H122.549V19.5847H120.851L120.837 13.9691L118.362 19.5847H116.844L114.355 13.9691V19.5847H110.863L110.201 17.978H106.623L105.963 19.5832H104.092L107.168 12.4182ZM131.005 12.4182H124.102V19.5804H130.898L133.088 17.2068L135.2 19.5804H137.407L134.199 16.0201L137.407 12.4182H135.295L133.116 14.7646L131.005 12.4182ZM108.413 13.6306L107.235 16.4927H109.59L108.413 13.6306ZM125.806 15.2104V13.9021V13.9009H130.113L131.993 15.9931L130.03 18.0967H125.806V16.6685H129.572V15.2104H125.806Z" fill="#1F72CD"/>
<rect x="147.142" width="44" height="32" rx="2" fill="white"/>
<path fill-rule="evenodd" clip-rule="evenodd" d="M167.897 25.225H171.162C176.258 25.225 180.319 21.1841 180.478 16.1923V16.1131C180.399 11.0421 176.258 6.92189 171.162 7.00112H167.499C162.642 7.15959 158.82 11.2798 158.979 16.1923C158.979 21.1048 162.96 25.1458 167.897 25.225ZM160.572 16.1132C160.572 11.993 163.996 8.58594 168.136 8.58594C172.277 8.58594 175.701 11.993 175.701 16.1132C175.701 20.2334 172.277 23.6404 168.136 23.6404C163.996 23.6404 160.572 20.2334 160.572 16.1132ZM169.331 21.1841V11.1213C172.118 11.8344 173.87 14.6076 173.153 17.3808C172.675 19.2825 171.242 20.7087 169.331 21.1841ZM163.199 14.8454C162.482 17.6186 164.154 20.471 166.941 21.1841V11.1213C165.11 11.5967 163.676 13.023 163.199 14.8454Z" fill="#0079BE"/>
<rect x="196.142" width="44" height="32" rx="2" fill="white"/>
<path d="M239.142 32H207.142L224.142 26.5L241.142 21V30C241.142 31.1046 240.246 32 239.142 32Z" fill="#FD6020"/>
<path fill-rule="evenodd" clip-rule="evenodd" d="M234.669 12.1426C236.013 12.1426 236.753 12.7643 236.753 13.9386C236.82 14.8366 236.215 15.5965 235.408 15.7346L237.224 18.2905H235.812L234.265 15.8037H234.131V18.2905H232.988V12.1426H234.669ZM234.131 14.9747H234.467C235.206 14.9747 235.542 14.6293 235.542 14.0076C235.542 13.455 235.206 13.1096 234.467 13.1096H234.131V14.9747ZM229.022 18.2905H232.249V17.2543H230.165V15.5965H232.182V14.5603H230.165V13.1787H232.249V12.1426H229.022V18.2905ZM225.659 16.2872L224.113 12.1425H222.903L225.39 18.4286H225.995L228.483 12.1425H227.273L225.659 16.2872ZM212.011 15.2509C212.011 16.9778 213.356 18.4285 215.037 18.4285C215.575 18.4285 216.045 18.2903 216.516 18.0831V16.7015C216.18 17.116 215.709 17.3923 215.171 17.3923C214.095 17.3923 213.221 16.5634 213.221 15.4581V15.32C213.154 14.2147 214.028 13.2477 215.104 13.1786C215.642 13.1786 216.18 13.4549 216.516 13.8694V12.4878C216.112 12.2115 215.575 12.1424 215.104 12.1424C213.356 12.0043 212.011 13.4549 212.011 15.2509ZM209.927 14.4912C209.254 14.2148 209.053 14.0767 209.053 13.7313C209.12 13.3168 209.456 12.9714 209.859 13.0405C210.196 13.0405 210.532 13.2478 210.801 13.5241L211.406 12.6951C210.935 12.2807 210.33 12.0044 209.725 12.0044C208.784 11.9353 207.977 12.6951 207.91 13.6622V13.7313C207.91 14.5602 208.246 15.0438 209.322 15.3892C209.591 15.4582 209.859 15.5964 210.128 15.7345C210.33 15.8727 210.465 16.0799 210.465 16.3562C210.465 16.8398 210.061 17.2543 209.658 17.2543H209.591C209.053 17.2543 208.582 16.9089 208.38 16.4253L207.641 17.1852C208.044 17.945 208.851 18.3595 209.658 18.3595C210.734 18.4286 211.608 17.5996 211.675 16.4944V16.2872C211.608 15.4582 211.271 15.0438 209.927 14.4912ZM206.028 18.2904H207.17V12.1425H206.028V18.2904ZM200.716 12.1425H202.397H202.733C204.347 12.2116 205.624 13.5931 205.557 15.251C205.557 16.149 205.154 16.9779 204.481 17.5996C203.876 18.0832 203.137 18.3595 202.397 18.2904H200.716V12.1425ZM202.196 17.2543C202.734 17.3233 203.339 17.1161 203.742 16.7707C204.145 16.3563 204.347 15.8036 204.347 15.1819C204.347 14.6293 204.145 14.0767 203.742 13.6622C203.339 13.3168 202.734 13.1096 202.196 13.1787H201.859V17.2543H202.196Z" fill="black"/>
<path fill-rule="evenodd" clip-rule="evenodd" d="M219.945 12C218.264 12 216.853 13.3816 216.853 15.1776C216.853 16.9045 218.197 18.3551 219.945 18.4242C221.693 18.4933 223.038 17.0427 223.105 15.2466C223.038 13.4506 221.693 12 219.945 12V12Z" fill="#FD6020"/>
<rect x="246.142" width="44" height="32" rx="2" fill="white"/>
<rect x="253.664" y="5" width="2.4" height="22" rx="1.2" fill="#231F20"/>
<rect x="281.485" y="5" width="2.4" height="22" rx="1.2" fill="#231F20"/>
<rect x="265.634" y="5" width="2.4" height="18" rx="1.2" fill="#231F20"/>
<rect x="257.634" y="5" width="2.4" height="18" rx="1.2" fill="#231F20"/>
<rect x="261.634" y="5" width="2.4" height="18" rx="1.2" fill="#231F20"/>
<rect x="273.634" y="5" width="2.4" height="18" rx="1.2" fill="#231F20"/>
<rect x="277.634" y="5" width="2.4" height="18" rx="1.2" fill="#231F20"/>
<rect x="269.634" y="5" width="2.4" height="18" rx="1.2" fill="#231F20"/>
<rect x="294.142" width="44" height="32" rx="2" fill="white"/>
<g clip-path="url(#clip0_58341_465)">
<path d="M311.888 21.2049V14.323C311.888 13.0568 313.009 12.0303 314.393 12.0303L316.613 12.0333C317.993 12.0358 319.11 13.0601 319.11 14.3227V15.7875C319.11 17.0538 317.988 18.0803 316.605 18.0803H313.467" stroke="#939598" stroke-miterlimit="10" stroke-linecap="round" stroke-linejoin="round"/>
<path d="M319.73 12.0293H320.694C321.261 12.0293 321.722 12.4506 321.722 12.9702V18.111" stroke="#939598" stroke-miterlimit="10" stroke-linecap="round" stroke-linejoin="round"/>
<path d="M321.515 11.2329L321.078 10.8332C320.97 10.734 320.97 10.5732 321.078 10.474L321.515 10.0745C321.623 9.97517 321.799 9.97517 321.908 10.0745L322.344 10.474C322.453 10.5732 322.453 10.734 322.344 10.8332L321.908 11.2329C321.799 11.3321 321.624 11.3321 321.515 11.2329Z" fill="#32A2BC"/>
<path d="M323.569 12.0247H324.525C325.016 12.0247 325.487 12.2033 325.835 12.5212L328.069 14.5658C328.358 14.8306 328.827 14.8306 329.117 14.5658L331.343 12.5287C331.69 12.2108 332.161 12.0321 332.653 12.0321H333.429" stroke="#939598" stroke-miterlimit="10" stroke-linecap="round" stroke-linejoin="round"/>
<path d="M323.569 18.0662H324.525C325.016 18.0662 325.487 17.8875 325.835 17.5696L328.069 15.5251C328.358 15.2602 328.827 15.2602 329.117 15.5251L331.343 17.5621C331.69 17.88 332.161 18.0587 332.653 18.0587H333.429" stroke="#939598" stroke-miterlimit="10" stroke-linecap="round" stroke-linejoin="round"/>
<path d="M306.193 19.3722C305.713 19.3722 305.263 19.2014 304.924 18.8913L303.091 17.2141C302.962 17.0961 302.738 17.0964 302.609 17.2141L300.77 18.8975C300.431 19.2075 299.98 19.3784 299.501 19.3784H299.14L301.461 21.5025C302.186 22.1658 303.361 22.1658 304.086 21.5025L306.414 19.3722H306.193Z" fill="#32A2BC"/>
<path d="M299.501 13.44C299.98 13.44 300.431 13.6108 300.77 13.9209L302.609 15.6044C302.742 15.7257 302.958 15.7262 303.091 15.6043L304.924 13.927C305.263 13.6169 305.713 13.4461 306.193 13.4461H306.413L304.086 11.3159C303.361 10.6525 302.186 10.6525 301.461 11.3159L299.14 13.44L299.501 13.44Z" fill="#32A2BC"/>
<path d="M308.339 15.2079L306.932 13.9207C306.901 13.932 306.868 13.9391 306.832 13.9391H306.193C305.862 13.9391 305.539 14.0618 305.305 14.2758L303.472 15.9529C303.301 16.1099 303.076 16.1884 302.85 16.1884C302.625 16.1884 302.4 16.1099 302.228 15.9531L300.389 14.2697C300.155 14.0556 299.832 13.933 299.501 13.933H298.714C298.681 13.933 298.65 13.9257 298.62 13.9155L297.208 15.2079C296.483 15.8713 296.483 16.9469 297.208 17.6103L298.62 18.9026C298.65 18.8924 298.681 18.8852 298.714 18.8852H299.501C299.832 18.8852 300.155 18.7625 300.389 18.5485L302.228 16.8653C302.561 16.5613 303.14 16.5612 303.472 16.8654L305.305 18.5424C305.539 18.7564 305.862 18.8791 306.193 18.8791H306.832C306.868 18.8791 306.901 18.8862 306.932 18.8975L308.339 17.6103C309.064 16.9469 309.064 15.8713 308.339 15.2079" fill="#32A2BC"/>
</g>
<defs>
<clipPath id="clip0_58341_465">
<rect width="37" height="12" fill="white" transform="translate(296.664 10)"/>
</clipPath>
</defs>
</svg>
